<svg xmlns="http://www.w3.org/2000/svg" xmlns:xlink="http://www.w3.org/1999/xlink" width="180" zoomAndPan="magnify" viewBox="0 0 135 30.000001" height="40" preserveAspectRatio="xMidYMid meet" version="1.0"><defs><g/></defs><g fill="#ffffff" fill-opacity="1"><g transform="translate(4.964762, 16.685509)"><g><path d="M 4.484375 0.09375 C 3.546875 0.09375 2.75 0.0234375 2.09375 -0.109375 C 1.445312 -0.242188 0.953125 -0.492188 0.609375 -0.859375 C 0.265625 -1.222656 0.09375 -1.742188 0.09375 -2.421875 L 2.65625 -2.421875 C 2.65625 -2.304688 2.703125 -2.207031 2.796875 -2.125 C 2.890625 -2.039062 3.078125 -1.972656 3.359375 -1.921875 C 3.640625 -1.878906 4.046875 -1.859375 4.578125 -1.859375 C 5.085938 -1.859375 5.460938 -1.867188 5.703125 -1.890625 C 5.953125 -1.921875 6.113281 -1.960938 6.1875 -2.015625 C 6.269531 -2.066406 6.3125 -2.132812 6.3125 -2.21875 C 6.3125 -2.3125 6.269531 -2.382812 6.1875 -2.4375 C 6.113281 -2.488281 5.941406 -2.523438 5.671875 -2.546875 C 5.410156 -2.566406 5.015625 -2.582031 4.484375 -2.59375 C 3.453125 -2.632812 2.617188 -2.722656 1.984375 -2.859375 C 1.359375 -3.003906 0.90625 -3.234375 0.625 -3.546875 C 0.34375 -3.859375 0.203125 -4.28125 0.203125 -4.8125 C 0.203125 -5.570312 0.5625 -6.117188 1.28125 -6.453125 C 2 -6.796875 3.035156 -6.96875 4.390625 -6.96875 C 5.285156 -6.96875 6.039062 -6.890625 6.65625 -6.734375 C 7.28125 -6.578125 7.753906 -6.320312 8.078125 -5.96875 C 8.410156 -5.625 8.578125 -5.15625 8.578125 -4.5625 L 6.03125 -4.5625 C 6.03125 -4.75 5.878906 -4.867188 5.578125 -4.921875 C 5.273438 -4.972656 4.8125 -5 4.1875 -5 C 3.789062 -5 3.488281 -4.988281 3.28125 -4.96875 C 3.070312 -4.957031 2.929688 -4.925781 2.859375 -4.875 C 2.785156 -4.832031 2.75 -4.769531 2.75 -4.6875 C 2.75 -4.59375 2.789062 -4.523438 2.875 -4.484375 C 2.957031 -4.453125 3.117188 -4.425781 3.359375 -4.40625 C 3.609375 -4.394531 3.984375 -4.378906 4.484375 -4.359375 C 5.160156 -4.335938 5.769531 -4.296875 6.3125 -4.234375 C 6.851562 -4.179688 7.3125 -4.085938 7.6875 -3.953125 C 8.070312 -3.816406 8.363281 -3.613281 8.5625 -3.34375 C 8.769531 -3.082031 8.875 -2.726562 8.875 -2.28125 C 8.875 -1.644531 8.703125 -1.15625 8.359375 -0.8125 C 8.015625 -0.46875 7.515625 -0.226562 6.859375 -0.09375 C 6.210938 0.03125 5.421875 0.09375 4.484375 0.09375 Z M 4.484375 0.09375 "/></g></g></g><g fill="#ffffff" fill-opacity="1"><g transform="translate(13.636021, 16.685509)"><g><path d="M 4.421875 0.09375 C 2.910156 0.09375 1.8125 -0.195312 1.125 -0.78125 C 0.4375 -1.363281 0.09375 -2.25 0.09375 -3.4375 C 0.09375 -4.632812 0.4375 -5.519531 1.125 -6.09375 C 1.8125 -6.675781 2.910156 -6.96875 4.421875 -6.96875 C 5.921875 -6.96875 7.015625 -6.675781 7.703125 -6.09375 C 8.390625 -5.519531 8.734375 -4.632812 8.734375 -3.4375 C 8.734375 -2.25 8.390625 -1.363281 7.703125 -0.78125 C 7.015625 -0.195312 5.921875 0.09375 4.421875 0.09375 Z M 4.421875 -2.0625 C 4.921875 -2.0625 5.296875 -2.125 5.546875 -2.25 C 5.796875 -2.382812 5.960938 -2.554688 6.046875 -2.765625 C 6.140625 -2.972656 6.1875 -3.195312 6.1875 -3.4375 C 6.1875 -3.6875 6.140625 -3.910156 6.046875 -4.109375 C 5.960938 -4.316406 5.796875 -4.484375 5.546875 -4.609375 C 5.296875 -4.742188 4.921875 -4.8125 4.421875 -4.8125 C 3.910156 -4.8125 3.53125 -4.742188 3.28125 -4.609375 C 3.03125 -4.484375 2.863281 -4.316406 2.78125 -4.109375 C 2.695312 -3.910156 2.65625 -3.6875 2.65625 -3.4375 C 2.65625 -3.195312 2.695312 -2.96875 2.78125 -2.75 C 2.863281 -2.539062 3.03125 -2.375 3.28125 -2.25 C 3.539062 -2.125 3.921875 -2.0625 4.421875 -2.0625 Z M 4.421875 -2.0625 "/></g></g></g><g fill="#ffffff" fill-opacity="1"><g transform="translate(22.268163, 16.685509)"><g><path d="M 4.515625 0.09375 C 3.003906 0.09375 1.90625 -0.195312 1.21875 -0.78125 C 0.539062 -1.363281 0.203125 -2.25 0.203125 -3.4375 L 0.203125 -6.875 L 2.75 -6.875 L 2.75 -3.4375 C 2.75 -3.195312 2.789062 -2.96875 2.875 -2.75 C 2.957031 -2.539062 3.125 -2.375 3.375 -2.25 C 3.632812 -2.125 4.015625 -2.0625 4.515625 -2.0625 C 5.015625 -2.0625 5.390625 -2.125 5.640625 -2.25 C 5.898438 -2.382812 6.070312 -2.554688 6.15625 -2.765625 C 6.238281 -2.972656 6.28125 -3.195312 6.28125 -3.4375 L 6.28125 -6.875 L 8.828125 -6.875 L 8.828125 -3.4375 C 8.828125 -2.25 8.484375 -1.363281 7.796875 -0.78125 C 7.109375 -0.195312 6.015625 0.09375 4.515625 0.09375 Z M 4.515625 0.09375 "/></g></g></g><g fill="#ffffff" fill-opacity="1"><g transform="translate(31.096275, 16.685509)"><g><path d="M 0.203125 0 L 0.203125 -6.875 L 2.75 -6.875 L 2.75 -2.15625 L 7.265625 -2.15625 L 7.265625 0 Z M 0.203125 0 "/></g></g></g><g fill="#ffffff" fill-opacity="1"><g transform="translate(38.258663, 16.685509)"><g/></g></g><g fill="#ffffff" fill-opacity="1"><g transform="translate(41.991623, 16.685509)"><g><path d="M 4.484375 0.09375 C 3.546875 0.09375 2.75 0.0234375 2.09375 -0.109375 C 1.445312 -0.242188 0.953125 -0.492188 0.609375 -0.859375 C 0.265625 -1.222656 0.09375 -1.742188 0.09375 -2.421875 L 2.65625 -2.421875 C 2.65625 -2.304688 2.703125 -2.207031 2.796875 -2.125 C 2.890625 -2.039062 3.078125 -1.972656 3.359375 -1.921875 C 3.640625 -1.878906 4.046875 -1.859375 4.578125 -1.859375 C 5.085938 -1.859375 5.460938 -1.867188 5.703125 -1.890625 C 5.953125 -1.921875 6.113281 -1.960938 6.1875 -2.015625 C 6.269531 -2.066406 6.3125 -2.132812 6.3125 -2.21875 C 6.3125 -2.3125 6.269531 -2.382812 6.1875 -2.4375 C 6.113281 -2.488281 5.941406 -2.523438 5.671875 -2.546875 C 5.410156 -2.566406 5.015625 -2.582031 4.484375 -2.59375 C 3.453125 -2.632812 2.617188 -2.722656 1.984375 -2.859375 C 1.359375 -3.003906 0.90625 -3.234375 0.625 -3.546875 C 0.34375 -3.859375 0.203125 -4.28125 0.203125 -4.8125 C 0.203125 -5.570312 0.5625 -6.117188 1.28125 -6.453125 C 2 -6.796875 3.035156 -6.96875 4.390625 -6.96875 C 5.285156 -6.96875 6.039062 -6.890625 6.65625 -6.734375 C 7.28125 -6.578125 7.753906 -6.320312 8.078125 -5.96875 C 8.410156 -5.625 8.578125 -5.15625 8.578125 -4.5625 L 6.03125 -4.5625 C 6.03125 -4.75 5.878906 -4.867188 5.578125 -4.921875 C 5.273438 -4.972656 4.8125 -5 4.1875 -5 C 3.789062 -5 3.488281 -4.988281 3.28125 -4.96875 C 3.070312 -4.957031 2.929688 -4.925781 2.859375 -4.875 C 2.785156 -4.832031 2.75 -4.769531 2.75 -4.6875 C 2.75 -4.59375 2.789062 -4.523438 2.875 -4.484375 C 2.957031 -4.453125 3.117188 -4.425781 3.359375 -4.40625 C 3.609375 -4.394531 3.984375 -4.378906 4.484375 -4.359375 C 5.160156 -4.335938 5.769531 -4.296875 6.3125 -4.234375 C 6.851562 -4.179688 7.3125 -4.085938 7.6875 -3.953125 C 8.070312 -3.816406 8.363281 -3.613281 8.5625 -3.34375 C 8.769531 -3.082031 8.875 -2.726562 8.875 -2.28125 C 8.875 -1.644531 8.703125 -1.15625 8.359375 -0.8125 C 8.015625 -0.46875 7.515625 -0.226562 6.859375 -0.09375 C 6.210938 0.03125 5.421875 0.09375 4.484375 0.09375 Z M 4.484375 0.09375 "/></g></g></g><g fill="#ffffff" fill-opacity="1"><g transform="translate(50.172605, 16.685509)"><g><path d="M 0.09375 0 L 2.9375 -6.875 L 6.734375 -6.875 L 9.578125 0 L 6.765625 0 L 6.296875 -1.234375 L 3.375 -1.234375 L 2.90625 0 Z M 4.046875 -3 L 5.625 -3 L 4.84375 -5.109375 Z M 4.046875 -3 "/></g></g></g><g fill="#ffffff" fill-opacity="1"><g transform="translate(59.549348, 16.685509)"><g><path d="M 0.203125 0 L 0.203125 -6.875 L 3.34375 -6.875 L 5.453125 -2.9375 L 7.578125 -6.875 L 10.71875 -6.875 L 10.71875 0 L 8.171875 0 L 8.171875 -3.265625 L 6.296875 0 L 4.625 0 L 2.75 -3.265625 L 2.75 0 Z M 0.203125 0 "/></g></g></g><g fill="#ffffff" fill-opacity="1"><g transform="translate(70.258747, 16.685509)"><g><path d="M 0.203125 0 L 0.203125 -6.875 L 5.59375 -6.875 C 6.113281 -6.875 6.570312 -6.757812 6.96875 -6.53125 C 7.363281 -6.300781 7.671875 -5.988281 7.890625 -5.59375 C 8.109375 -5.195312 8.21875 -4.742188 8.21875 -4.234375 C 8.21875 -3.722656 8.109375 -3.269531 7.890625 -2.875 C 7.671875 -2.476562 7.363281 -2.164062 6.96875 -1.9375 C 6.570312 -1.71875 6.113281 -1.609375 5.59375 -1.609375 L 2.75 -1.609375 L 2.75 0 Z M 2.75 -3.765625 L 5.109375 -3.765625 C 5.191406 -3.765625 5.273438 -3.769531 5.359375 -3.78125 C 5.453125 -3.800781 5.523438 -3.84375 5.578125 -3.90625 C 5.640625 -3.96875 5.671875 -4.078125 5.671875 -4.234375 C 5.671875 -4.390625 5.640625 -4.5 5.578125 -4.5625 C 5.523438 -4.632812 5.453125 -4.675781 5.359375 -4.6875 C 5.273438 -4.695312 5.191406 -4.703125 5.109375 -4.703125 L 2.75 -4.703125 Z M 2.75 -3.765625 "/></g></g></g><g fill="#ffffff" fill-opacity="1"><g transform="translate(78.381376, 16.685509)"><g><path d="M 0.203125 0 L 0.203125 -6.875 L 2.75 -6.875 L 2.75 -2.15625 L 7.265625 -2.15625 L 7.265625 0 Z M 0.203125 0 "/></g></g></g><g fill="#ffffff" fill-opacity="1"><g transform="translate(85.543764, 16.685509)"><g><path d="M 0.203125 0 L 0.203125 -6.875 L 7.453125 -6.875 L 7.453125 -4.90625 L 2.75 -4.90625 L 2.75 -4.265625 L 7.453125 -4.265625 L 7.453125 -2.59375 L 2.75 -2.59375 L 2.75 -1.96875 L 7.453125 -1.96875 L 7.453125 0 Z M 0.203125 0 "/></g></g></g><g fill="#ffffff" fill-opacity="1"><g transform="translate(92.902112, 16.685509)"><g/></g></g><g fill="#ffffff" fill-opacity="1"><g transform="translate(96.635071, 16.685509)"><g><path d="M 4.421875 0.09375 C 2.910156 0.09375 1.8125 -0.195312 1.125 -0.78125 C 0.4375 -1.363281 0.09375 -2.25 0.09375 -3.4375 C 0.09375 -4.632812 0.4375 -5.519531 1.125 -6.09375 C 1.8125 -6.675781 2.910156 -6.96875 4.421875 -6.96875 C 5.785156 -6.96875 6.828125 -6.71875 7.546875 -6.21875 C 8.265625 -5.71875 8.648438 -4.925781 8.703125 -3.84375 L 6.09375 -3.84375 C 6.050781 -4.164062 5.894531 -4.40625 5.625 -4.5625 C 5.363281 -4.726562 4.960938 -4.8125 4.421875 -4.8125 C 3.910156 -4.8125 3.53125 -4.742188 3.28125 -4.609375 C 3.03125 -4.484375 2.863281 -4.316406 2.78125 -4.109375 C 2.695312 -3.910156 2.65625 -3.6875 2.65625 -3.4375 C 2.65625 -3.195312 2.695312 -2.96875 2.78125 -2.75 C 2.863281 -2.539062 3.03125 -2.375 3.28125 -2.25 C 3.539062 -2.125 3.921875 -2.0625 4.421875 -2.0625 C 4.960938 -2.0625 5.363281 -2.144531 5.625 -2.3125 C 5.894531 -2.476562 6.050781 -2.722656 6.09375 -3.046875 L 8.703125 -3.046875 C 8.648438 -1.960938 8.265625 -1.164062 7.546875 -0.65625 C 6.835938 -0.15625 5.796875 0.09375 4.421875 0.09375 Z M 4.421875 0.09375 "/></g></g></g><g fill="#ffffff" fill-opacity="1"><g transform="translate(105.23782, 16.685509)"><g><path d="M 0.203125 0 L 0.203125 -6.875 L 2.75 -6.875 L 2.75 -2.15625 L 7.265625 -2.15625 L 7.265625 0 Z M 0.203125 0 "/></g></g></g><g fill="#ffffff" fill-opacity="1"><g transform="translate(112.400208, 16.685509)"><g><path d="M 4.515625 0.09375 C 3.003906 0.09375 1.90625 -0.195312 1.21875 -0.78125 C 0.539062 -1.363281 0.203125 -2.25 0.203125 -3.4375 L 0.203125 -6.875 L 2.75 -6.875 L 2.75 -3.4375 C 2.75 -3.195312 2.789062 -2.96875 2.875 -2.75 C 2.957031 -2.539062 3.125 -2.375 3.375 -2.25 C 3.632812 -2.125 4.015625 -2.0625 4.515625 -2.0625 C 5.015625 -2.0625 5.390625 -2.125 5.640625 -2.25 C 5.898438 -2.382812 6.070312 -2.554688 6.15625 -2.765625 C 6.238281 -2.972656 6.28125 -3.195312 6.28125 -3.4375 L 6.28125 -6.875 L 8.828125 -6.875 L 8.828125 -3.4375 C 8.828125 -2.25 8.484375 -1.363281 7.796875 -0.78125 C 7.109375 -0.195312 6.015625 0.09375 4.515625 0.09375 Z M 4.515625 0.09375 "/></g></g></g><g fill="#ffffff" fill-opacity="1"><g transform="translate(121.228321, 16.685509)"><g><path d="M 0.203125 0 L 0.203125 -6.875 L 6.1875 -6.875 C 6.707031 -6.875 7.113281 -6.796875 7.40625 -6.640625 C 7.695312 -6.492188 7.90625 -6.289062 8.03125 -6.03125 C 8.15625 -5.769531 8.21875 -5.46875 8.21875 -5.125 C 8.21875 -4.894531 8.171875 -4.671875 8.078125 -4.453125 C 7.984375 -4.234375 7.851562 -4.03125 7.6875 -3.84375 C 7.988281 -3.625 8.234375 -3.359375 8.421875 -3.046875 C 8.617188 -2.742188 8.71875 -2.40625 8.71875 -2.03125 C 8.71875 -1.65625 8.640625 -1.3125 8.484375 -1 C 8.328125 -0.695312 8.082031 -0.453125 7.75 -0.265625 C 7.425781 -0.0859375 7 0 6.46875 0 Z M 2.75 -4.453125 L 5.109375 -4.453125 C 5.234375 -4.453125 5.359375 -4.46875 5.484375 -4.5 C 5.609375 -4.53125 5.671875 -4.640625 5.671875 -4.828125 C 5.671875 -5.015625 5.609375 -5.125 5.484375 -5.15625 C 5.359375 -5.1875 5.234375 -5.203125 5.109375 -5.203125 L 2.75 -5.203125 Z M 2.75 -1.859375 L 5.59375 -1.859375 C 5.726562 -1.859375 5.851562 -1.875 5.96875 -1.90625 C 6.09375 -1.9375 6.15625 -2.046875 6.15625 -2.234375 C 6.15625 -2.410156 6.09375 -2.515625 5.96875 -2.546875 C 5.851562 -2.578125 5.726562 -2.59375 5.59375 -2.59375 L 2.75 -2.59375 Z M 2.75 -1.859375 "/></g></g></g></svg>